<?xml version='1.0' encoding='utf-8'?>
<svg xmlns="http://www.w3.org/2000/svg" width="45.5mm" height="56mm" viewBox="0 0 812500 1000000"><def><style>.C1 {stroke: #ffffff; stroke-width: 4464; stroke-opacity: 1.000; fill: none; fill-opacity: 1.000;}</style></def><rect fill="#212830" x="0" y="0" width="812500" height="1000000" fill-opacity="1.0" /><g stroke-linecap="round" stroke-linejoin="round" fill-rule="evenodd"><path d="M 178571 875000 c 0 29587 -23985 53571 -53571 53571 c -29587 -0 -53571 -23985 -53571 -53571 c 0 -29587 23985 -53571 53571 -53571 c 29587 0 53571 23985 53571 53571" class="C1" /><path d="M 214286 875000 c -0 49311 -39975 89286 -89286 89286 c -49311 0 -89286 -39975 -89286 -89286 c 0 -49311 39975 -89286 89286 -89286 c 49311 0 89286 39975 89286 89286" class="C1" /><path d="M 178571 687500 c 0 29587 -23985 53571 -53571 53571 c -29587 0 -53571 -23985 -53571 -53571 c 0 -29587 23985 -53571 53571 -53571 c 29587 0 53571 23985 53571 53571" class="C1" /><path d="M 214286 687500 c -0 49311 -39975 89286 -89286 89286 c -49311 0 -89286 -39975 -89286 -89286 c 0 -49311 39975 -89286 89286 -89286 c 49311 0 89286 39975 89286 89286" class="C1" /><path d="M 178571 500000 c 0 29587 -23985 53571 -53571 53571 c -29587 0 -53571 -23985 -53571 -53571 c 0 -29587 23985 -53571 53571 -53571 c 29587 0 53571 23985 53571 53571" class="C1" /><path d="M 214286 500000 c -0 49311 -39975 89286 -89286 89286 c -49311 0 -89286 -39975 -89286 -89286 c 0 -49311 39975 -89286 89286 -89286 c 49311 0 89286 39975 89286 89286" class="C1" /><path d="M 178571 312500 c 0 29587 -23985 53571 -53571 53571 c -29587 0 -53571 -23985 -53571 -53571 c 0 -29587 23985 -53571 53571 -53571 c 29587 0 53571 23985 53571 53571" class="C1" /><path d="M 214286 312500 c -0 49311 -39975 89286 -89286 89286 c -49311 0 -89286 -39975 -89286 -89286 c 0 -49311 39975 -89286 89286 -89286 c 49311 0 89286 39975 89286 89286" class="C1" /><path d="M 178571 125000 c 0 29587 -23985 53571 -53571 53571 c -29587 0 -53571 -23985 -53571 -53571 c 0 -29587 23985 -53571 53571 -53571 c 29587 0 53571 23985 53571 53571" class="C1" /><path d="M 214286 125000 c -0 49311 -39975 89286 -89286 89286 c -49311 0 -89286 -39975 -89286 -89286 c 0 -49311 39975 -89286 89286 -89286 c 49311 0 89286 39975 89286 89286" class="C1" /><path d="M 366071 875000 c 0 29587 -23985 53571 -53571 53571 c -29587 -0 -53571 -23985 -53571 -53571 c 0 -29587 23985 -53571 53571 -53571 c 29587 0 53571 23985 53571 53571" class="C1" /><path d="M 401786 875000 c 0 49311 -39975 89286 -89286 89286 c -49311 0 -89286 -39975 -89286 -89286 c 0 -49311 39975 -89286 89286 -89286 c 49311 0 89286 39975 89286 89286" class="C1" /><path d="M 366071 687500 c 0 29587 -23985 53571 -53571 53571 c -29587 0 -53571 -23985 -53571 -53571 c 0 -29587 23985 -53571 53571 -53571 c 29587 0 53571 23985 53571 53571" class="C1" /><path d="M 401786 687500 c 0 49311 -39975 89286 -89286 89286 c -49311 0 -89286 -39975 -89286 -89286 c 0 -49311 39975 -89286 89286 -89286 c 49311 0 89286 39975 89286 89286" class="C1" /><path d="M 366071 500000 c 0 29587 -23985 53571 -53571 53571 c -29587 0 -53571 -23985 -53571 -53571 c 0 -29587 23985 -53571 53571 -53571 c 29587 0 53571 23985 53571 53571" class="C1" /><path d="M 401786 500000 c 0 49311 -39975 89286 -89286 89286 c -49311 0 -89286 -39975 -89286 -89286 c 0 -49311 39975 -89286 89286 -89286 c 49311 0 89286 39975 89286 89286" class="C1" /><path d="M 366071 312500 c 0 29587 -23985 53571 -53571 53571 c -29587 0 -53571 -23985 -53571 -53571 c 0 -29587 23985 -53571 53571 -53571 c 29587 0 53571 23985 53571 53571" class="C1" /><path d="M 401786 312500 c 0 49311 -39975 89286 -89286 89286 c -49311 0 -89286 -39975 -89286 -89286 c 0 -49311 39975 -89286 89286 -89286 c 49311 0 89286 39975 89286 89286" class="C1" /><path d="M 366071 125000 c 0 29587 -23985 53571 -53571 53571 c -29587 0 -53571 -23985 -53571 -53571 c 0 -29587 23985 -53571 53571 -53571 c 29587 0 53571 23985 53571 53571" class="C1" /><path d="M 401786 125000 c 0 49311 -39975 89286 -89286 89286 c -49311 0 -89286 -39975 -89286 -89286 c 0 -49311 39975 -89286 89286 -89286 c 49311 0 89286 39975 89286 89286" class="C1" /><path d="M 553571 875000 c 0 29587 -23985 53571 -53571 53571 c -29587 -0 -53571 -23985 -53571 -53571 c 0 -29587 23985 -53571 53571 -53571 c 29587 0 53571 23985 53571 53571" class="C1" /><path d="M 589286 875000 c 0 49311 -39975 89286 -89286 89286 c -49311 0 -89286 -39975 -89286 -89286 c 0 -49311 39975 -89286 89286 -89286 c 49311 0 89286 39975 89286 89286" class="C1" /><path d="M 553571 687500 c 0 29587 -23985 53571 -53571 53571 c -29587 0 -53571 -23985 -53571 -53571 c 0 -29587 23985 -53571 53571 -53571 c 29587 0 53571 23985 53571 53571" class="C1" /><path d="M 589286 687500 c 0 49311 -39975 89286 -89286 89286 c -49311 0 -89286 -39975 -89286 -89286 c 0 -49311 39975 -89286 89286 -89286 c 49311 0 89286 39975 89286 89286" class="C1" /><path d="M 553571 500000 c 0 29587 -23985 53571 -53571 53571 c -29587 0 -53571 -23985 -53571 -53571 c 0 -29587 23985 -53571 53571 -53571 c 29587 0 53571 23985 53571 53571" class="C1" /><path d="M 589286 500000 c 0 49311 -39975 89286 -89286 89286 c -49311 0 -89286 -39975 -89286 -89286 c 0 -49311 39975 -89286 89286 -89286 c 49311 0 89286 39975 89286 89286" class="C1" /><path d="M 553571 312500 c 0 29587 -23985 53571 -53571 53571 c -29587 0 -53571 -23985 -53571 -53571 c 0 -29587 23985 -53571 53571 -53571 c 29587 0 53571 23985 53571 53571" class="C1" /><path d="M 589286 312500 c 0 49311 -39975 89286 -89286 89286 c -49311 0 -89286 -39975 -89286 -89286 c 0 -49311 39975 -89286 89286 -89286 c 49311 0 89286 39975 89286 89286" class="C1" /><path d="M 553571 125000 c 0 29587 -23985 53571 -53571 53571 c -29587 0 -53571 -23985 -53571 -53571 c 0 -29587 23985 -53571 53571 -53571 c 29587 0 53571 23985 53571 53571" class="C1" /><path d="M 589286 125000 c 0 49311 -39975 89286 -89286 89286 c -49311 0 -89286 -39975 -89286 -89286 c 0 -49311 39975 -89286 89286 -89286 c 49311 0 89286 39975 89286 89286" class="C1" /><path d="M 741071 875000 c 0 29587 -23985 53571 -53571 53571 c -29587 -0 -53571 -23985 -53571 -53571 c 0 -29587 23985 -53571 53571 -53571 c 29587 0 53571 23985 53571 53571" class="C1" /><path d="M 776786 875000 c 0 49311 -39975 89286 -89286 89286 c -49311 0 -89286 -39975 -89286 -89286 c 0 -49311 39975 -89286 89286 -89286 c 49311 0 89286 39975 89286 89286" class="C1" /><path d="M 741071 687500 c 0 29587 -23985 53571 -53571 53571 c -29587 0 -53571 -23985 -53571 -53571 c 0 -29587 23985 -53571 53571 -53571 c 29587 0 53571 23985 53571 53571" class="C1" /><path d="M 776786 687500 c 0 49311 -39975 89286 -89286 89286 c -49311 0 -89286 -39975 -89286 -89286 c 0 -49311 39975 -89286 89286 -89286 c 49311 0 89286 39975 89286 89286" class="C1" /><path d="M 741071 500000 c 0 29587 -23985 53571 -53571 53571 c -29587 0 -53571 -23985 -53571 -53571 c 0 -29587 23985 -53571 53571 -53571 c 29587 0 53571 23985 53571 53571" class="C1" /><path d="M 776786 500000 c 0 49311 -39975 89286 -89286 89286 c -49311 0 -89286 -39975 -89286 -89286 c 0 -49311 39975 -89286 89286 -89286 c 49311 0 89286 39975 89286 89286" class="C1" /><path d="M 741071 312500 c 0 29587 -23985 53571 -53571 53571 c -29587 0 -53571 -23985 -53571 -53571 c 0 -29587 23985 -53571 53571 -53571 c 29587 0 53571 23985 53571 53571" class="C1" /><path d="M 776786 312500 c 0 49311 -39975 89286 -89286 89286 c -49311 0 -89286 -39975 -89286 -89286 c 0 -49311 39975 -89286 89286 -89286 c 49311 0 89286 39975 89286 89286" class="C1" /><path d="M 741071 125000 c 0 29587 -23985 53571 -53571 53571 c -29587 0 -53571 -23985 -53571 -53571 c 0 -29587 23985 -53571 53571 -53571 c 29587 0 53571 23985 53571 53571" class="C1" /><path d="M 776786 125000 c 0 49311 -39975 89286 -89286 89286 c -49311 0 -89286 -39975 -89286 -89286 c 0 -49311 39975 -89286 89286 -89286 c 49311 0 89286 39975 89286 89286" class="C1" /></g></svg>