<?xml version='1.0' encoding='utf-8'?>
<svg xmlns="http://www.w3.org/2000/svg" width="44.6mm" height="34.4mm" viewBox="0 0 1000000 771300"><def><style>.C1 {stroke: #ffffff; stroke-width: 5605; stroke-opacity: 1.000; fill: none; fill-opacity: 1.000;}</style></def><rect fill="#212830" x="0" y="0" width="1000000" height="771300" fill-opacity="1.0" /><g stroke-linecap="round" stroke-linejoin="round" fill-rule="evenodd"><path d="M 213004 614350 c -0 30958 -25096 56054 -56054 56054 c -30958 0 -56054 -25096 -56054 -56054 c 0 -30958 25096 -56054 56054 -56054 c 30958 0 56054 25096 56054 56054" class="C1" /><path d="M 269058 614350 c -0 61915 -50192 112108 -112108 112108 c -61915 0 -112108 -50192 -112108 -112108 c 0 -61915 50192 -112108 112108 -112108 c 61915 0 112108 50192 112108 112108" class="C1" /><path d="M 213004 385650 c -0 30958 -25096 56054 -56054 56054 c -30958 0 -56054 -25096 -56054 -56054 c 0 -30958 25096 -56054 56054 -56054 c 30958 0 56054 25096 56054 56054" class="C1" /><path d="M 269058 385650 c -0 61915 -50192 112108 -112108 112108 c -61915 0 -112108 -50192 -112108 -112108 c 0 -61915 50192 -112108 112108 -112108 c 61915 0 112108 50192 112108 112108" class="C1" /><path d="M 213004 156951 c -0 30958 -25096 56054 -56054 56054 c -30958 0 -56054 -25096 -56054 -56054 c 0 -30958 25096 -56054 56054 -56054 c 30958 0 56054 25096 56054 56054" class="C1" /><path d="M 269058 156951 c -0 61915 -50192 112108 -112108 112108 c -61915 0 -112108 -50192 -112108 -112108 c 0 -61915 50192 -112108 112108 -112108 c 61915 0 112108 50192 112108 112108" class="C1" /><path d="M 441704 614350 c 0 30958 -25096 56054 -56054 56054 c -30958 0 -56054 -25096 -56054 -56054 c 0 -30958 25096 -56054 56054 -56054 c 30958 0 56054 25096 56054 56054" class="C1" /><path d="M 497758 614350 c 0 61915 -50192 112108 -112108 112108 c -61915 0 -112108 -50192 -112108 -112108 c 0 -61915 50192 -112108 112108 -112108 c 61915 0 112108 50192 112108 112108" class="C1" /><path d="M 441704 385650 c 0 30958 -25096 56054 -56054 56054 c -30958 0 -56054 -25096 -56054 -56054 c 0 -30958 25096 -56054 56054 -56054 c 30958 0 56054 25096 56054 56054" class="C1" /><path d="M 497758 385650 c 0 61915 -50192 112108 -112108 112108 c -61915 0 -112108 -50192 -112108 -112108 c 0 -61915 50192 -112108 112108 -112108 c 61915 0 112108 50192 112108 112108" class="C1" /><path d="M 441704 156951 c 0 30958 -25096 56054 -56054 56054 c -30958 0 -56054 -25096 -56054 -56054 c 0 -30958 25096 -56054 56054 -56054 c 30958 0 56054 25096 56054 56054" class="C1" /><path d="M 497758 156951 c 0 61915 -50192 112108 -112108 112108 c -61915 0 -112108 -50192 -112108 -112108 c 0 -61915 50192 -112108 112108 -112108 c 61915 0 112108 50192 112108 112108" class="C1" /><path d="M 670404 614350 c 0 30958 -25096 56054 -56054 56054 c -30958 0 -56054 -25096 -56054 -56054 c 0 -30958 25096 -56054 56054 -56054 c 30958 0 56054 25096 56054 56054" class="C1" /><path d="M 726457 614350 c 0 61915 -50192 112108 -112108 112108 c -61915 0 -112108 -50192 -112108 -112108 c 0 -61915 50192 -112108 112108 -112108 c 61915 0 112108 50192 112108 112108" class="C1" /><path d="M 670404 385650 c 0 30958 -25096 56054 -56054 56054 c -30958 0 -56054 -25096 -56054 -56054 c 0 -30958 25096 -56054 56054 -56054 c 30958 0 56054 25096 56054 56054" class="C1" /><path d="M 726457 385650 c 0 61915 -50192 112108 -112108 112108 c -61915 0 -112108 -50192 -112108 -112108 c 0 -61915 50192 -112108 112108 -112108 c 61915 0 112108 50192 112108 112108" class="C1" /><path d="M 670404 156951 c 0 30958 -25096 56054 -56054 56054 c -30958 0 -56054 -25096 -56054 -56054 c 0 -30958 25096 -56054 56054 -56054 c 30958 0 56054 25096 56054 56054" class="C1" /><path d="M 726457 156951 c 0 61915 -50192 112108 -112108 112108 c -61915 0 -112108 -50192 -112108 -112108 c 0 -61915 50192 -112108 112108 -112108 c 61915 0 112108 50192 112108 112108" class="C1" /><path d="M 899103 614350 c 0 30958 -25096 56054 -56054 56054 c -30958 0 -56054 -25096 -56054 -56054 c 0 -30958 25096 -56054 56054 -56054 c 30958 0 56054 25096 56054 56054" class="C1" /><path d="M 955157 614350 c 0 61915 -50192 112108 -112108 112108 c -61915 0 -112108 -50192 -112108 -112108 c 0 -61915 50192 -112108 112108 -112108 c 61915 0 112108 50192 112108 112108" class="C1" /><path d="M 899103 385650 c 0 30958 -25096 56054 -56054 56054 c -30958 0 -56054 -25096 -56054 -56054 c 0 -30958 25096 -56054 56054 -56054 c 30958 0 56054 25096 56054 56054" class="C1" /><path d="M 955157 385650 c 0 61915 -50192 112108 -112108 112108 c -61915 0 -112108 -50192 -112108 -112108 c 0 -61915 50192 -112108 112108 -112108 c 61915 0 112108 50192 112108 112108" class="C1" /><path d="M 899103 156951 c 0 30958 -25096 56054 -56054 56054 c -30958 0 -56054 -25096 -56054 -56054 c 0 -30958 25096 -56054 56054 -56054 c 30958 0 56054 25096 56054 56054" class="C1" /><path d="M 955157 156951 c 0 61915 -50192 112108 -112108 112108 c -61915 0 -112108 -50192 -112108 -112108 c 0 -61915 50192 -112108 112108 -112108 c 61915 0 112108 50192 112108 112108" class="C1" /></g></svg>